<?xml version="1.0" encoding="UTF-8"?><svg id="Ebene_1" xmlns="http://www.w3.org/2000/svg" viewBox="0 0 646 104"><defs><style>.cls-1{opacity:.34;}.cls-1,.cls-2,.cls-3{fill:#fff;stroke-width:0px;}.cls-3{opacity:.67;}</style></defs><circle class="cls-2" cx="146.18" cy="83.43" r="20.43"/><path class="cls-1" d="m84.04,40.98c-.07,0-.14,0-.21,0-4.98.12-9.73,2.11-13.25,5.63l-24.08,24.08c-3.52,3.52-5.51,8.27-5.64,13.25,0,.07,0,.14,0,.21-.38,10.69-9.11,19.38-19.81,19.69C9.28,104.2-.34,94.59,0,82.81c.31-10.69,9-19.43,19.69-19.8.07,0,.14,0,.21,0,4.98-.13,9.73-2.12,13.25-5.64l24.08-24.08c3.52-3.52,5.51-8.27,5.64-13.25,0-.07,0-.14,0-.21C63.26,9.13,71.99.45,82.69.13c11.77-.35,21.39,9.27,21.04,21.04-.32,10.69-9,19.43-19.69,19.8Z"/><path class="cls-3" d="m146.9,40.98c-.07,0-.14,0-.21,0-4.98.12-9.73,2.11-13.25,5.63l-24.08,24.08c-3.52,3.52-5.51,8.27-5.64,13.25,0,.07,0,.14,0,.21-.38,10.69-9.11,19.38-19.81,19.69-11.77.34-21.38-9.27-21.04-21.04.31-10.69,9-19.43,19.69-19.8.07,0,.14,0,.21,0,4.98-.13,9.73-2.12,13.25-5.64l24.08-24.08c3.52-3.52,5.51-8.27,5.64-13.25,0-.07,0-.14,0-.21.38-10.69,9.11-19.38,19.8-19.69,11.77-.35,21.39,9.27,21.04,21.04-.32,10.69-9,19.43-19.69,19.8Z"/><path class="cls-2" d="m200.37,66.07v-28.69h5.12l9.71,19.1,9.67-19.1h5.12v28.69h-4.34v-21.19l-8.77,17.09h-3.36l-8.81-17.05v21.15h-4.34Z"/><path class="cls-2" d="m235.82,66.07v-28.69h4.34v28.69h-4.34Z"/><path class="cls-2" d="m245.98,66.07v-28.69h9.88c2.27,0,4.13.38,5.59,1.15,1.46.77,2.55,1.8,3.26,3.09.71,1.3,1.07,2.74,1.07,4.32,0,1.78-.47,3.39-1.41,4.84-.94,1.45-2.41,2.49-4.41,3.11l6.11,12.17h-5.04l-5.57-11.56h-5.12v11.56h-4.34Zm4.34-14.84h5.29c1.97,0,3.41-.48,4.32-1.43.92-.96,1.37-2.2,1.37-3.73s-.45-2.75-1.35-3.67c-.9-.92-2.36-1.37-4.39-1.37h-5.25v10.21Z"/><path class="cls-2" d="m281.64,66.57c-2.05,0-3.9-.4-5.55-1.21-1.65-.81-2.96-2.04-3.93-3.71-.97-1.67-1.46-3.78-1.46-6.35v-17.91h4.34v17.95c0,2.51.6,4.36,1.8,5.53,1.2,1.18,2.83,1.76,4.88,1.76s3.63-.59,4.84-1.76c1.2-1.17,1.8-3.02,1.8-5.53v-17.95h4.34v17.91c0,2.57-.5,4.69-1.5,6.35-1,1.67-2.34,2.9-4.02,3.71-1.68.81-3.53,1.21-5.55,1.21Z"/><path class="cls-2" d="m199.23,96.07v-17.5h3.12l5.92,11.65,5.9-11.65h3.12v17.5h-2.65v-12.92l-5.35,10.42h-2.05l-5.38-10.4v12.9h-2.65Z"/><path class="cls-2" d="m222.21,101.57l2.97-6.52h-.72l-4.9-11.38h2.88l3.8,9.18,3.97-9.18h2.8l-8,17.9h-2.8Z"/><path class="cls-2" d="m239.93,96.37c-1.22,0-2.3-.28-3.26-.82-.96-.55-1.71-1.31-2.25-2.29-.54-.97-.81-2.1-.81-3.39s.27-2.41.81-3.39c.54-.98,1.29-1.74,2.25-2.29.96-.55,2.05-.82,3.26-.82,1.53,0,2.82.4,3.86,1.2,1.04.8,1.71,1.88,2.01,3.25h-2.77c-.17-.68-.53-1.22-1.1-1.6-.57-.38-1.23-.58-2-.58-.65,0-1.25.16-1.8.49s-.99.8-1.33,1.43-.5,1.4-.5,2.31.17,1.69.5,2.31.78,1.1,1.33,1.44c.55.33,1.15.5,1.8.5.77,0,1.43-.19,2-.57.57-.38.93-.93,1.1-1.62h2.77c-.28,1.33-.95,2.41-2,3.22-1.05.82-2.34,1.23-3.88,1.23Z"/><path class="cls-2" d="m254.48,96.37c-1.18,0-2.25-.27-3.19-.81-.94-.54-1.69-1.3-2.24-2.27-.55-.98-.83-2.11-.83-3.41s.28-2.44.84-3.41c.56-.97,1.31-1.73,2.26-2.27.95-.54,2.01-.81,3.17-.81s2.25.27,3.19.81c.94.54,1.69,1.3,2.25,2.27.56.98.84,2.11.84,3.41s-.28,2.44-.84,3.41c-.56.97-1.31,1.73-2.26,2.27-.95.54-2.02.81-3.2.81Zm0-2.27c.63,0,1.22-.16,1.76-.48.54-.32.98-.79,1.31-1.41s.5-1.4.5-2.34-.16-1.71-.49-2.34-.76-1.1-1.3-1.41c-.54-.32-1.13-.48-1.76-.48s-1.22.16-1.76.48c-.54.32-.98.79-1.31,1.41s-.5,1.4-.5,2.34.17,1.71.5,2.34.77,1.1,1.3,1.41c.53.32,1.12.48,1.75.48Z"/><path class="cls-2" d="m270.63,96.37c-.97,0-1.82-.19-2.56-.57-.74-.38-1.33-.93-1.76-1.62l-.28,1.9h-2.38v-18h2.65v7.53c.4-.58.95-1.1,1.65-1.55.7-.45,1.6-.67,2.7-.67,1.2,0,2.26.28,3.17.85.92.57,1.64,1.34,2.16,2.32.52.98.79,2.1.79,3.35s-.26,2.36-.79,3.34c-.53.97-1.25,1.74-2.16,2.3-.92.56-1.98.84-3.2.84Zm-.45-2.3c1.13,0,2.07-.39,2.8-1.16.73-.78,1.1-1.79,1.1-3.04,0-.82-.17-1.54-.5-2.18-.33-.63-.79-1.13-1.38-1.49-.58-.36-1.26-.54-2.02-.54-1.13,0-2.06.39-2.79,1.18-.72.78-1.09,1.79-1.09,3.02s.36,2.26,1.09,3.04c.73.77,1.65,1.16,2.79,1.16Z"/><path class="cls-2" d="m283.86,96.37c-1.05,0-1.92-.18-2.6-.53-.68-.35-1.19-.81-1.53-1.39-.33-.57-.5-1.2-.5-1.89,0-1.2.47-2.15,1.4-2.85.93-.7,2.27-1.05,4-1.05h3.25v-.23c0-.97-.26-1.69-.79-2.18-.52-.48-1.2-.72-2.04-.72-.73,0-1.37.18-1.91.54-.54.36-.87.89-.99,1.59h-2.65c.08-.9.39-1.67.91-2.31.53-.64,1.19-1.13,2-1.47.81-.34,1.7-.51,2.66-.51,1.73,0,3.08.45,4.03,1.36.95.91,1.42,2.15,1.42,3.71v7.62h-2.3l-.22-2.12c-.35.68-.86,1.26-1.53,1.73-.67.47-1.54.7-2.62.7Zm.53-2.15c.72,0,1.32-.17,1.81-.51.49-.34.88-.8,1.15-1.36.28-.57.45-1.19.51-1.88h-2.95c-1.05,0-1.8.18-2.24.55-.44.37-.66.83-.66,1.38s.21,1.01.64,1.34c.43.32,1,.49,1.74.49Z"/><path class="cls-2" d="m299.51,96.37c-1.22,0-2.3-.28-3.26-.82-.96-.55-1.71-1.31-2.25-2.29-.54-.97-.81-2.1-.81-3.39s.27-2.41.81-3.39c.54-.98,1.29-1.74,2.25-2.29.96-.55,2.05-.82,3.26-.82,1.53,0,2.82.4,3.86,1.2,1.04.8,1.71,1.88,2.01,3.25h-2.77c-.17-.68-.53-1.22-1.1-1.6-.57-.38-1.23-.58-2-.58-.65,0-1.25.16-1.8.49s-.99.8-1.33,1.43-.5,1.4-.5,2.31.17,1.69.5,2.31.78,1.1,1.33,1.44c.55.33,1.15.5,1.8.5.77,0,1.43-.19,2-.57.57-.38.93-.93,1.1-1.62h2.77c-.28,1.33-.95,2.41-2,3.22-1.05.82-2.34,1.23-3.88,1.23Z"/><path class="cls-2" d="m313.21,96.07c-1.22,0-2.18-.3-2.9-.89-.72-.59-1.07-1.65-1.07-3.16v-6.12h-2.12v-2.22h2.12l.32-3.15h2.33v3.15h3.5v2.22h-3.5v6.12c0,.68.15,1.15.44,1.41.29.26.8.39,1.51.39h1.42v2.25h-2.05Z"/><path class="cls-2" d="m323.58,96.37c-1.22,0-2.3-.27-3.24-.81-.94-.54-1.68-1.3-2.21-2.26-.53-.97-.8-2.09-.8-3.38s.26-2.44.79-3.43c.52-.98,1.26-1.75,2.2-2.3.94-.55,2.04-.82,3.29-.82s2.28.27,3.17.81c.9.54,1.6,1.26,2.1,2.16.5.9.75,1.89.75,2.97,0,.17,0,.35-.01.54,0,.19-.02.4-.04.64h-9.65c.08,1.2.48,2.11,1.19,2.74.71.62,1.53.94,2.46.94.75,0,1.38-.17,1.89-.51.51-.34.89-.8,1.14-1.39h2.65c-.33,1.17-1,2.14-1.99,2.93-.99.78-2.22,1.18-3.69,1.18Zm0-10.82c-.88,0-1.67.26-2.35.79-.68.53-1.1,1.31-1.25,2.36h7c-.05-.97-.39-1.73-1.03-2.3-.63-.57-1.42-.85-2.38-.85Z"/><path class="cls-2" d="m332.38,96.07v-12.4h2.38l.23,2.35c.43-.82,1.04-1.46,1.81-1.94.77-.47,1.71-.71,2.81-.71v2.77h-.73c-.73,0-1.39.12-1.96.36-.58.24-1.03.65-1.38,1.23-.34.57-.51,1.37-.51,2.39v5.95h-2.65Z"/><path class="cls-2" d="m343.38,81.32c-.5,0-.91-.15-1.24-.46-.33-.31-.49-.7-.49-1.16s.16-.85.49-1.16c.33-.31.74-.46,1.24-.46s.91.15,1.24.46c.33.31.49.7.49,1.16s-.16.85-.49,1.16c-.32.31-.74.46-1.24.46Zm-1.33,14.75v-12.4h2.65v12.4h-2.65Z"/><path class="cls-2" d="m352.41,96.37c-1.05,0-1.92-.18-2.6-.53-.68-.35-1.19-.81-1.53-1.39-.33-.57-.5-1.2-.5-1.89,0-1.2.47-2.15,1.4-2.85.93-.7,2.27-1.05,4-1.05h3.25v-.23c0-.97-.26-1.69-.79-2.18-.52-.48-1.2-.72-2.04-.72-.73,0-1.37.18-1.91.54-.54.36-.87.89-.99,1.59h-2.65c.08-.9.39-1.67.91-2.31.53-.64,1.19-1.13,2-1.47.81-.34,1.7-.51,2.66-.51,1.73,0,3.08.45,4.03,1.36.95.91,1.42,2.15,1.42,3.71v7.62h-2.3l-.22-2.12c-.35.68-.86,1.26-1.53,1.73-.67.47-1.54.7-2.62.7Zm.53-2.15c.72,0,1.32-.17,1.81-.51.49-.34.88-.8,1.15-1.36.28-.57.45-1.19.51-1.88h-2.95c-1.05,0-1.8.18-2.24.55-.44.37-.66.83-.66,1.38s.21,1.01.64,1.34c.43.32,1,.49,1.74.49Z"/><path class="cls-2" d="m362.18,96.07v-18h2.65v18h-2.65Z"/><path class="cls-2" d="m374.58,96.07v-17.5h2.65v17.5h-2.65Z"/><path class="cls-2" d="m380.68,96.07v-12.4h2.35l.2,2.18c.38-.77.95-1.37,1.69-1.81.74-.44,1.6-.66,2.56-.66,1.5,0,2.68.47,3.54,1.4.86.93,1.29,2.33,1.29,4.17v7.12h-2.62v-6.85c0-2.4-.98-3.6-2.95-3.6-.98,0-1.8.35-2.44,1.05s-.96,1.7-.96,3v6.4h-2.65Z"/><path class="cls-2" d="m396.06,96.07v-10.18h-1.77v-2.22h1.77v-1.8c0-1.35.34-2.32,1.01-2.91.67-.59,1.63-.89,2.86-.89h1.3v2.25h-.9c-.58,0-1,.12-1.25.36-.25.24-.38.65-.38,1.21v1.78h2.85v2.22h-2.85v10.18h-2.65Z"/><path class="cls-2" d="m409.38,96.37c-1.22,0-2.3-.27-3.24-.81-.94-.54-1.68-1.3-2.21-2.26-.53-.97-.8-2.09-.8-3.38s.26-2.44.79-3.43c.52-.98,1.26-1.75,2.2-2.3.94-.55,2.04-.82,3.29-.82s2.28.27,3.17.81c.9.54,1.6,1.26,2.1,2.16.5.9.75,1.89.75,2.97,0,.17,0,.35-.01.54,0,.19-.02.4-.04.64h-9.65c.08,1.2.48,2.11,1.19,2.74.71.62,1.53.94,2.46.94.75,0,1.38-.17,1.89-.51.51-.34.89-.8,1.14-1.39h2.65c-.33,1.17-1,2.14-1.99,2.93-.99.78-2.22,1.18-3.69,1.18Zm0-10.82c-.88,0-1.67.26-2.35.79-.68.53-1.1,1.31-1.25,2.36h7c-.05-.97-.39-1.73-1.03-2.3-.63-.57-1.42-.85-2.38-.85Z"/><path class="cls-2" d="m424.06,96.37c-1.22,0-2.3-.28-3.26-.82-.96-.55-1.71-1.31-2.25-2.29-.54-.97-.81-2.1-.81-3.39s.27-2.41.81-3.39c.54-.98,1.29-1.74,2.25-2.29.96-.55,2.05-.82,3.26-.82,1.53,0,2.82.4,3.86,1.2,1.04.8,1.71,1.88,2.01,3.25h-2.77c-.17-.68-.53-1.22-1.1-1.6-.57-.38-1.23-.58-2-.58-.65,0-1.25.16-1.8.49s-.99.8-1.33,1.43-.5,1.4-.5,2.31.17,1.69.5,2.31.78,1.1,1.33,1.44c.55.33,1.15.5,1.8.5.77,0,1.43-.19,2-.57.57-.38.93-.93,1.1-1.62h2.77c-.28,1.33-.95,2.41-2,3.22-1.05.82-2.34,1.23-3.88,1.23Z"/><path class="cls-2" d="m437.76,96.07c-1.22,0-2.18-.3-2.9-.89-.72-.59-1.07-1.65-1.07-3.16v-6.12h-2.12v-2.22h2.12l.32-3.15h2.33v3.15h3.5v2.22h-3.5v6.12c0,.68.15,1.15.44,1.41.29.26.8.39,1.51.39h1.42v2.25h-2.05Z"/><path class="cls-2" d="m444.16,81.32c-.5,0-.91-.15-1.24-.46-.33-.31-.49-.7-.49-1.16s.16-.85.49-1.16c.33-.31.74-.46,1.24-.46s.91.15,1.24.46c.33.31.49.7.49,1.16s-.16.85-.49,1.16c-.32.31-.74.46-1.24.46Zm-1.33,14.75v-12.4h2.65v12.4h-2.65Z"/><path class="cls-2" d="m454.78,96.37c-1.18,0-2.25-.27-3.19-.81-.94-.54-1.69-1.3-2.24-2.27-.55-.98-.83-2.11-.83-3.41s.28-2.44.84-3.41c.56-.97,1.31-1.73,2.26-2.27.95-.54,2.01-.81,3.17-.81s2.25.27,3.19.81c.94.54,1.69,1.3,2.25,2.27.56.98.84,2.11.84,3.41s-.28,2.44-.84,3.41c-.56.97-1.31,1.73-2.26,2.27-.95.54-2.02.81-3.2.81Zm0-2.27c.63,0,1.22-.16,1.76-.48.54-.32.98-.79,1.31-1.41s.5-1.4.5-2.34-.16-1.71-.49-2.34-.76-1.1-1.3-1.41c-.54-.32-1.13-.48-1.76-.48s-1.22.16-1.76.48c-.54.32-.98.79-1.31,1.41s-.5,1.4-.5,2.34.17,1.71.5,2.34.77,1.1,1.3,1.41c.53.32,1.12.48,1.75.48Z"/><path class="cls-2" d="m463.96,96.07v-12.4h2.35l.2,2.18c.38-.77.95-1.37,1.69-1.81.74-.44,1.6-.66,2.56-.66,1.5,0,2.68.47,3.54,1.4.86.93,1.29,2.33,1.29,4.17v7.12h-2.62v-6.85c0-2.4-.98-3.6-2.95-3.6-.98,0-1.8.35-2.44,1.05s-.96,1.7-.96,3v6.4h-2.65Z"/><path class="cls-2" d="m485.11,96.07v-17.5h6.02c1.38,0,2.52.23,3.41.7.89.47,1.55,1.1,1.99,1.89.43.79.65,1.67.65,2.64,0,1.08-.29,2.07-.86,2.95-.58.88-1.47,1.52-2.69,1.9l3.73,7.43h-3.08l-3.4-7.05h-3.12v7.05h-2.65Zm2.65-9.05h3.23c1.2,0,2.08-.29,2.64-.88.56-.58.84-1.34.84-2.27s-.28-1.68-.83-2.24c-.55-.56-1.44-.84-2.67-.84h-3.2v6.22Z"/><path class="cls-2" d="m505.25,96.37c-1.22,0-2.3-.27-3.24-.81-.94-.54-1.68-1.3-2.21-2.26-.53-.97-.8-2.09-.8-3.38s.26-2.44.79-3.43c.52-.98,1.26-1.75,2.2-2.3.94-.55,2.04-.82,3.29-.82s2.28.27,3.17.81c.9.54,1.6,1.26,2.1,2.16.5.9.75,1.89.75,2.97,0,.17,0,.35-.01.54,0,.19-.02.4-.04.64h-9.65c.08,1.2.48,2.11,1.19,2.74.71.62,1.53.94,2.46.94.75,0,1.38-.17,1.89-.51.51-.34.89-.8,1.14-1.39h2.65c-.33,1.17-1,2.14-1.99,2.93-.99.78-2.22,1.18-3.69,1.18Zm0-10.82c-.88,0-1.67.26-2.35.79-.68.53-1.1,1.31-1.25,2.36h7c-.05-.97-.39-1.73-1.03-2.3-.63-.57-1.42-.85-2.38-.85Z"/><path class="cls-2" d="m519,96.37c-1.57,0-2.86-.38-3.88-1.15-1.02-.77-1.6-1.78-1.75-3.05h2.67c.13.57.45,1.05.95,1.46.5.41,1.16.61,1.97.61s1.38-.17,1.75-.5c.37-.33.55-.72.55-1.15,0-.63-.25-1.06-.76-1.29-.51-.23-1.21-.43-2.11-.61-.7-.15-1.4-.35-2.09-.6s-1.27-.6-1.72-1.06c-.46-.46-.69-1.08-.69-1.86,0-1.08.42-1.99,1.25-2.71.83-.72,2-1.09,3.5-1.09,1.38,0,2.5.33,3.36,1,.86.67,1.36,1.61,1.51,2.82h-2.55c-.08-.53-.33-.95-.74-1.25s-.95-.45-1.64-.45-1.18.14-1.55.41c-.37.27-.55.63-.55,1.06s.25.77.76,1.02c.51.25,1.18.48,2.01.68.83.18,1.6.4,2.31.64.71.24,1.28.6,1.71,1.06.43.47.65,1.15.65,2.05.02,1.13-.42,2.07-1.31,2.82s-2.1,1.12-3.64,1.12Z"/><path class="cls-2" d="m532.65,96.37c-1.22,0-2.3-.27-3.24-.81-.94-.54-1.68-1.3-2.21-2.26-.53-.97-.8-2.09-.8-3.38s.26-2.44.79-3.43c.52-.98,1.26-1.75,2.2-2.3.94-.55,2.04-.82,3.29-.82s2.28.27,3.17.81c.9.54,1.6,1.26,2.1,2.16.5.9.75,1.89.75,2.97,0,.17,0,.35-.01.54,0,.19-.02.4-.04.64h-9.65c.08,1.2.48,2.11,1.19,2.74.71.62,1.53.94,2.46.94.75,0,1.38-.17,1.89-.51.51-.34.89-.8,1.14-1.39h2.65c-.33,1.17-1,2.14-1.99,2.93-.99.78-2.22,1.18-3.69,1.18Zm0-10.82c-.88,0-1.67.26-2.35.79-.68.53-1.1,1.31-1.25,2.36h7c-.05-.97-.39-1.73-1.03-2.3-.63-.57-1.42-.85-2.38-.85Z"/><path class="cls-2" d="m545.65,96.37c-1.05,0-1.92-.18-2.6-.53-.68-.35-1.19-.81-1.53-1.39-.33-.57-.5-1.2-.5-1.89,0-1.2.47-2.15,1.4-2.85.93-.7,2.27-1.05,4-1.05h3.25v-.23c0-.97-.26-1.69-.79-2.18-.52-.48-1.2-.72-2.04-.72-.73,0-1.37.18-1.91.54-.54.36-.87.89-.99,1.59h-2.65c.08-.9.39-1.67.91-2.31.53-.64,1.19-1.13,2-1.47.81-.34,1.7-.51,2.66-.51,1.73,0,3.08.45,4.03,1.36.95.91,1.42,2.15,1.42,3.71v7.62h-2.3l-.22-2.12c-.35.68-.86,1.26-1.53,1.73-.67.47-1.54.7-2.62.7Zm.53-2.15c.72,0,1.32-.17,1.81-.51.49-.34.88-.8,1.15-1.36.28-.57.45-1.19.51-1.88h-2.95c-1.05,0-1.8.18-2.24.55-.44.37-.66.83-.66,1.38s.21,1.01.64,1.34c.43.32,1,.49,1.74.49Z"/><path class="cls-2" d="m555.43,96.07v-12.4h2.38l.23,2.35c.43-.82,1.04-1.46,1.81-1.94.77-.47,1.71-.71,2.81-.71v2.77h-.73c-.73,0-1.39.12-1.96.36-.58.24-1.03.65-1.38,1.23-.34.57-.51,1.37-.51,2.39v5.95h-2.65Z"/><path class="cls-2" d="m570.45,96.37c-1.22,0-2.3-.28-3.26-.82-.96-.55-1.71-1.31-2.25-2.29-.54-.97-.81-2.1-.81-3.39s.27-2.41.81-3.39c.54-.98,1.29-1.74,2.25-2.29.96-.55,2.05-.82,3.26-.82,1.53,0,2.82.4,3.86,1.2,1.04.8,1.71,1.88,2.01,3.25h-2.77c-.17-.68-.53-1.22-1.1-1.6-.57-.38-1.23-.58-2-.58-.65,0-1.25.16-1.8.49s-.99.8-1.33,1.43-.5,1.4-.5,2.31.17,1.69.5,2.31.78,1.1,1.33,1.44c.55.33,1.15.5,1.8.5.77,0,1.43-.19,2-.57.57-.38.93-.93,1.1-1.62h2.77c-.28,1.33-.95,2.41-2,3.22-1.05.82-2.34,1.23-3.88,1.23Z"/><path class="cls-2" d="m579.2,96.07v-18h2.65v7.6c.42-.72,1-1.28,1.74-1.69.74-.41,1.56-.61,2.46-.61,1.48,0,2.65.47,3.5,1.4.85.93,1.27,2.33,1.27,4.17v7.12h-2.62v-6.85c0-2.4-.96-3.6-2.88-3.6-1,0-1.83.35-2.49,1.05s-.99,1.7-.99,3v6.4h-2.65Z"/><path class="cls-2" d="m606.9,96.37c-1.25,0-2.38-.25-3.39-.74-1.01-.49-1.81-1.25-2.4-2.26-.59-1.02-.89-2.31-.89-3.88v-10.92h2.65v10.95c0,1.53.37,2.66,1.1,3.38.73.72,1.72,1.08,2.97,1.08s2.22-.36,2.95-1.08c.73-.72,1.1-1.84,1.1-3.38v-10.95h2.65v10.92c0,1.57-.3,2.86-.91,3.88-.61,1.02-1.42,1.77-2.45,2.26-1.03.49-2.15.74-3.39.74Z"/><path class="cls-2" d="m616.95,96.07v-12.4h2.35l.2,2.18c.38-.77.95-1.37,1.69-1.81.74-.44,1.6-.66,2.56-.66,1.5,0,2.68.47,3.54,1.4.86.93,1.29,2.33,1.29,4.17v7.12h-2.62v-6.85c0-2.4-.98-3.6-2.95-3.6-.98,0-1.8.35-2.44,1.05s-.96,1.7-.96,3v6.4h-2.65Z"/><path class="cls-2" d="m633.2,81.32c-.5,0-.91-.15-1.24-.46-.33-.31-.49-.7-.49-1.16s.16-.85.49-1.16c.33-.31.74-.46,1.24-.46s.91.15,1.24.46c.33.31.49.7.49,1.16s-.16.85-.49,1.16c-.32.31-.74.46-1.24.46Zm-1.33,14.75v-12.4h2.65v12.4h-2.65Z"/><path class="cls-2" d="m643.23,96.07c-1.22,0-2.18-.3-2.9-.89-.72-.59-1.07-1.65-1.07-3.16v-6.12h-2.12v-2.22h2.12l.32-3.15h2.33v3.15h3.5v2.22h-3.5v6.12c0,.68.15,1.15.44,1.41.29.26.8.39,1.51.39h1.42v2.25h-2.05Z"/></svg>