<?xml version="1.0" encoding="UTF-8"?><svg id="Ebene_1" xmlns="http://www.w3.org/2000/svg" viewBox="0 0 167 167"><defs><style>.cls-1{opacity:.34;}.cls-1,.cls-2,.cls-3{fill:#fff;stroke-width:0px;}.cls-3{opacity:.67;}</style></defs><path class="cls-2" d="m33.88,165.3v-31.91h5.7l10.8,21.24,10.76-21.24h5.7v31.91h-4.83v-23.57l-9.75,19.01h-3.74l-9.8-18.96v23.52h-4.83Z"/><path class="cls-2" d="m72.39,165.3v-31.91h4.83v31.91h-4.83Z"/><path class="cls-2" d="m82.79,165.3v-31.91h10.98c2.52,0,4.6.43,6.22,1.28,1.62.85,2.83,2,3.62,3.44.79,1.44,1.19,3.05,1.19,4.81,0,1.98-.52,3.77-1.57,5.38-1.05,1.61-2.68,2.77-4.9,3.46l6.79,13.54h-5.61l-6.2-12.85h-5.7v12.85h-4.83Zm4.83-16.5h5.88c2.19,0,3.79-.53,4.81-1.6,1.02-1.06,1.53-2.45,1.53-4.15s-.5-3.06-1.5-4.08c-1-1.02-2.63-1.53-4.88-1.53h-5.83v11.35Z"/><path class="cls-2" d="m121.53,165.85c-2.28,0-4.34-.45-6.18-1.34s-3.3-2.27-4.38-4.12c-1.08-1.85-1.62-4.21-1.62-7.07v-19.92h4.83v19.97c0,2.8.67,4.85,2,6.15,1.34,1.31,3.15,1.96,5.42,1.96s4.04-.65,5.38-1.96c1.34-1.31,2-3.36,2-6.15v-19.97h4.83v19.92c0,2.86-.55,5.21-1.66,7.07-1.11,1.85-2.6,3.23-4.47,4.12s-3.93,1.34-6.18,1.34Z"/><circle class="cls-2" cx="146.18" cy="83.43" r="20.43"/><path class="cls-1" d="m84.04,40.98c-.07,0-.14,0-.21,0-4.98.12-9.73,2.11-13.25,5.63l-24.08,24.08c-3.52,3.52-5.51,8.27-5.64,13.25,0,.07,0,.14,0,.21-.38,10.69-9.11,19.38-19.81,19.69C9.28,104.2-.34,94.59,0,82.81c.31-10.69,9-19.43,19.69-19.8.07,0,.14,0,.21,0,4.98-.13,9.73-2.12,13.25-5.64l24.08-24.08c3.52-3.52,5.51-8.27,5.64-13.25,0-.07,0-.14,0-.21C63.26,9.13,71.99.45,82.69.13c11.77-.35,21.39,9.27,21.04,21.04-.32,10.69-9,19.43-19.69,19.8Z"/><path class="cls-3" d="m146.9,40.98c-.07,0-.14,0-.21,0-4.98.12-9.73,2.11-13.25,5.63l-24.08,24.08c-3.52,3.52-5.51,8.27-5.64,13.25,0,.07,0,.14,0,.21-.38,10.69-9.11,19.38-19.81,19.69-11.77.34-21.38-9.27-21.04-21.04.31-10.69,9-19.43,19.69-19.8.07,0,.14,0,.21,0,4.98-.13,9.73-2.12,13.25-5.64l24.08-24.08c3.52-3.52,5.51-8.27,5.64-13.25,0-.07,0-.14,0-.21.38-10.69,9.11-19.38,19.8-19.69,11.77-.35,21.39,9.27,21.04,21.04-.32,10.69-9,19.43-19.69,19.8Z"/></svg>